<svg width="13" height="26" viewBox="0 0 13 26" fill="none" xmlns="http://www.w3.org/2000/svg">
<g id="letters">
<g id="Property 1=r, Property 2=7">
<path id="letters / r / 7" d="M8.31646 25.537C8.26614 25.4615 8.24098 22.933 8.26614 21.3353C8.2913 20.1403 8.2913 19.5993 8.26614 19.5238C8.21582 19.3603 8.12776 19.1716 8.01454 19.0458C7.9139 18.9326 7.86358 18.8194 7.80068 18.6055L7.76294 18.4546L7.66231 18.5426C7.42329 18.7187 7.00816 18.8949 7.00816 18.8068C7.00816 18.7942 7.08364 18.6936 7.15911 18.5804C7.46103 18.1652 7.67489 17.6495 7.81326 17.0456C7.87616 16.7563 7.88874 16.6431 7.88874 15.9512C7.88874 14.8945 7.77552 13.9762 7.57425 13.2591C7.37297 12.5546 7.17169 12.2401 6.83204 12.0766C6.6685 11.9885 6.63076 11.9885 6.29111 11.9885C5.69986 11.9885 5.25957 12.1395 4.93249 12.4414C4.73121 12.6301 4.59284 12.844 4.51736 13.083C4.40414 13.4226 4.32866 14.1774 4.31608 14.9951C4.29092 15.8631 4.32866 16.1776 4.45446 16.6556C4.60542 17.184 5.09603 18.3036 5.23441 18.4168C5.32246 18.5049 5.2973 18.5552 5.17151 18.5552C4.76895 18.5552 4.12738 18.8697 3.90095 19.1842C3.82547 19.2722 3.82547 19.3226 3.80031 19.6874C3.78773 19.9264 3.74999 20.3541 3.72483 20.6434C3.68709 20.9454 3.64935 21.3982 3.62419 21.6498C3.61161 21.9014 3.56129 22.4172 3.52355 22.782C3.47323 23.1594 3.43549 23.6626 3.42291 23.9142C3.41034 24.2287 3.38518 24.3671 3.3726 24.3671C3.34744 24.3545 3.32228 24.1406 3.3097 23.7507C3.29712 23.4236 3.27196 22.9959 3.25938 22.7946C3.2468 22.5933 3.22164 22.065 3.22164 21.5995C3.22164 20.9957 3.20906 20.6686 3.1839 20.4422C3.14616 20.2535 3.121 20.1025 3.10842 20.0899C3.10842 20.0648 3.02036 20.2032 2.91972 20.3918C2.50459 21.197 1.85044 22.1153 1.27177 22.7065C1.04533 22.933 0.944695 23.021 0.919536 22.9959C0.894376 22.9833 0.932115 22.9078 1.03275 22.7946C1.49821 22.1908 2.20267 20.8573 2.25299 20.4673C2.26557 20.4044 2.31589 20.2283 2.35363 20.0774C2.55491 19.4735 2.63039 18.9703 2.68071 17.8507C2.71845 16.8821 2.69329 16.077 2.61781 15.1712C2.54233 14.3787 2.50459 13.5233 2.54233 13.2968C2.56749 13.083 2.63039 13.0704 2.69329 13.2591C2.73103 13.3975 2.8694 13.5736 2.94488 13.5736C3.10842 13.5736 3.10842 12.844 2.94488 11.9005C2.81908 11.1205 2.60523 10.3154 2.20267 8.96939C1.92592 8.08881 1.85044 7.79947 1.88818 7.71141C1.91334 7.63594 1.9385 7.64852 2.01398 7.77431C2.05172 7.84979 2.17752 8.00075 2.29073 8.11397C2.52975 8.37814 2.76877 8.51652 2.89456 8.4662C3.09584 8.39072 3.1839 8.11397 3.17132 7.5353C3.17132 6.54149 2.74361 4.62936 2.29073 3.50976C1.82528 2.35242 1.14597 1.29572 0.303126 0.402553C0.0012106 0.0754788 -0.0491086 0 0.03895 0C0.0641096 0 0.504402 0.440293 1.02017 0.968644C1.53595 1.497 2.07688 2.02535 2.21525 2.15114C2.58007 2.45306 3.0581 2.78013 3.73741 3.19527C4.06448 3.38397 4.32866 3.56008 4.32866 3.57266C4.32866 3.6104 4.70605 3.77394 4.97023 3.862C5.28472 3.96264 5.6747 4.01295 6.51755 4.08843C6.89494 4.12617 7.28491 4.17649 7.36039 4.18907C7.54909 4.23939 8.27872 4.21423 8.76933 4.13875C9.64991 4.02553 10.0902 3.82426 10.5808 3.33365C10.845 3.06947 10.8953 2.99399 11.0085 2.72982C11.1846 2.365 11.235 2.33984 11.2224 2.64176C11.1972 2.91851 11.0589 3.28333 10.7444 3.88716C10.606 4.16391 10.3544 4.65452 10.1908 4.9816C9.76313 5.83703 9.63733 6.23958 9.5996 6.94405C9.58702 7.4095 9.62475 7.73657 9.73797 8.11397C9.82603 8.36556 10.0021 8.74296 10.0776 8.8436C10.1405 8.9065 10.1154 8.91908 9.73797 9.04487C9.2222 9.20841 8.68127 9.51033 8.21582 9.9003C7.95164 10.1142 7.41071 10.6551 7.32265 10.8186L7.24717 10.9318L7.32265 10.9822C7.93906 11.3847 8.50515 12.0137 8.89513 12.7559C8.98318 12.932 9.00834 12.9572 9.02092 12.8943C9.07124 12.7685 9.4109 12.3659 9.48638 12.3659C9.49896 12.3659 9.49896 12.4037 9.48638 12.454C9.43606 12.7056 9.37316 13.4478 9.348 14.2906C9.33542 14.8064 9.32284 15.2467 9.33542 15.2593C9.33542 15.2719 9.348 15.8757 9.348 16.6053C9.348 17.7501 9.36058 17.9765 9.4109 18.3539C9.56186 19.398 9.90151 20.6434 10.2915 21.5366C10.6563 22.3795 11.235 23.2475 11.864 23.9142C12.1407 24.2035 12.1407 24.279 11.8514 24.1029C11.3356 23.801 10.8953 23.3858 10.4676 22.8072C10.1279 22.3669 10.0021 22.153 9.29768 20.9202C8.99576 20.3918 8.73159 19.9516 8.70643 19.9516C8.69385 19.939 8.65611 20.2786 8.60579 20.6812C8.55547 21.2976 8.53031 21.7127 8.51773 23.021C8.49257 24.3922 8.45483 25.2477 8.40451 25.4992C8.39193 25.5747 8.3542 25.5873 8.31646 25.537ZM4.81927 10.2148C4.83185 10.1016 4.85701 9.98836 4.86959 9.97578C4.90733 9.93804 4.97023 10.0513 4.99539 10.2148C5.02055 10.4538 5.04571 10.4664 5.20925 10.3029C5.39794 10.1016 6.36659 8.86876 6.6056 8.50394C7.14653 7.72399 7.44845 6.83083 7.44845 6.01314C7.46103 5.76155 7.44845 5.62317 7.42329 5.59801C7.37297 5.53511 7.22201 5.50995 6.46723 5.38415C5.76276 5.27093 5.39794 5.18288 4.89475 4.9816C4.60542 4.86838 4.2406 4.74258 4.19028 4.74258C4.19028 4.74258 4.2406 4.8558 4.3035 4.99418C4.63058 5.69865 4.78153 6.62955 4.81927 8.13913C4.83185 9.04487 4.80669 9.47259 4.68089 10.2777C4.64316 10.5419 4.618 10.7683 4.618 10.7809C4.618 10.806 4.65574 10.7306 4.70605 10.6299C4.76895 10.5041 4.80669 10.3658 4.81927 10.2148Z" fill="#0E0907"/>
</g>
</g>
</svg>
