<svg width="16" height="16" viewBox="0 0 16 16" fill="none" xmlns="http://www.w3.org/2000/svg">
<g id="symbols">
<g id="Property 1=20" clip-path="url(#clip0_19_147)">
<g id="Abstract 120">
<path id="Vector" d="M2.3374 2.49609V13.541H13.6978V2.49609H2.3374ZM13.6978 8.04956L11.8151 9.88003L13.6978 11.7105L11.8151 13.541L9.9323 11.7105L8.01762 13.541L6.13485 11.7105L4.25208 13.541L2.36931 11.7105L4.25208 9.88003L2.36931 8.04956L4.25208 6.21908L2.36931 4.35759L4.25208 2.52712L6.13485 4.35759L8.01762 2.52712L9.9323 4.35759L11.8151 2.52712L13.6978 4.35759L11.8151 6.18806L13.6978 8.04956Z" fill="#2C2321"/>
<path id="Vector_2" d="M6.13274 4.34947L4.2373 6.19226L6.13274 8.03505L8.02818 6.19226L6.13274 4.34947Z" fill="#2C2321"/>
<path id="Vector_3" d="M6.14055 8.03819L4.24512 9.88098L6.14056 11.7238L8.03599 9.88098L6.14055 8.03819Z" fill="#2C2321"/>
<path id="Vector_4" d="M9.92669 4.34203L8.03125 6.18481L9.92669 8.0276L11.8221 6.18481L9.92669 4.34203Z" fill="#2C2321"/>
<path id="Vector_5" d="M9.93499 8.03075L8.03955 9.87354L9.93499 11.7163L11.8304 9.87354L9.93499 8.03075Z" fill="#2C2321"/>
</g>
</g>
</g>
<defs>
<clipPath id="clip0_19_147">
<rect width="16" height="16" fill="white"/>
</clipPath>
</defs>
</svg>
